<svg width="35" height="32" viewBox="0 0 35 32" fill="none" xmlns="http://www.w3.org/2000/svg">
<g clip-path="url(#clip0_3890_22064)">
<path d="M33.3421 0L18.6958 10.8372L21.4194 4.45053L33.3421 0Z" fill="#E17726"/>
<path d="M0.825498 0.0136719L12.7163 4.45221L15.3024 10.9226L0.825498 0.0136719ZM27.448 23.0486L33.9215 23.1718L31.6591 30.8574L23.76 28.6826L27.448 23.0486ZM6.68523 23.0486L10.3595 28.6826L2.47376 30.8575L0.225098 23.1718L6.68523 23.0486Z" fill="#E27625"/>
<path d="M14.9509 9.27307L15.2154 17.8175L7.29932 17.4573L9.55105 14.0603L9.57958 14.0276L14.9509 9.27307ZM19.1006 9.17773L24.554 14.0279L24.5823 14.0604L26.834 17.4575L18.9196 17.8175L19.1006 9.17773ZM10.5914 23.072L14.9138 26.4399L9.89278 28.864L10.5914 23.072ZM23.5429 23.0715L24.227 28.8641L19.22 26.4396L23.5429 23.0715Z" fill="#E27625"/>
<path d="M19.3303 26.123L24.4112 28.5833L19.6849 30.8294L19.734 29.3449L19.3303 26.123ZM14.8013 26.1241L14.4135 29.3206L14.4453 30.8277L9.70801 28.5833L14.8013 26.1241Z" fill="#D5BFB2"/>
<path d="M13.3343 18.9336L14.662 21.724L10.1416 20.3997L13.3343 18.9336ZM20.7989 18.9339L24.0067 20.3997L19.4715 21.7236L20.7989 18.9339Z" fill="#233447"/>
<path d="M10.9366 23.0449L10.206 29.0502L6.28955 23.1762L10.9366 23.0449ZM23.1966 23.045L27.8438 23.1762L23.9127 29.0505L23.1966 23.045ZM26.9481 17.1191L23.5661 20.5659L20.9585 19.3743L19.7101 21.9989L18.8917 17.4857L26.9481 17.1191ZM7.18315 17.1191L15.2411 17.4857L14.4226 21.9989L13.174 19.3747L10.5802 20.5661L7.18315 17.1191Z" fill="#CC6228"/>
<path d="M6.95557 16.4112L10.782 20.294L10.9145 24.1272L6.95557 16.4112ZM27.1818 16.4043L23.2157 24.134L23.365 20.294L27.1818 16.4043ZM15.0544 16.6478L15.2084 17.6171L15.5889 20.0319L15.3442 27.4486L14.1876 21.4906L14.1872 21.429L15.0544 16.6478ZM19.0772 16.6343L19.9466 21.429L19.9462 21.4906L18.7866 27.4635L18.7408 25.9695L18.5598 19.9879L19.0772 16.6343Z" fill="#E27525"/>
<path d="M23.7052 20.1387L23.5757 23.4691L19.5392 26.614L18.7232 26.0375L19.6379 21.3261L23.7052 20.1387ZM10.4424 20.1387L14.4956 21.3261L15.4102 26.0375L14.5942 26.614L10.5576 23.4688L10.4424 20.1387Z" fill="#F5841F"/>
<path d="M8.93555 27.8477L14.0998 30.2946L14.0779 29.2497L14.5101 28.8703H19.6213L20.069 29.2483L20.0359 30.2925L25.1675 27.8538L22.6705 29.9173L19.6511 31.991H14.4686L11.4513 29.9087L8.93555 27.8477Z" fill="#C0AC9D"/>
<path d="M18.9605 25.7969L19.6906 26.3127L20.1185 29.7266L19.4993 29.2038H14.6358L14.0283 29.7371L14.4422 26.313L15.1726 25.7969H18.9605Z" fill="#161616"/>
<path d="M32.3752 0.300781L34.1333 5.57505L33.0353 10.908L33.8172 11.511L32.7592 12.3182L33.5544 12.9324L32.5015 13.8912L33.1479 14.3593L31.4324 16.3628L24.3964 14.3141L24.3355 14.2814L19.2652 10.0044L32.3752 0.300781ZM1.75813 0.300781L14.8683 10.0044L9.79787 14.2814L9.73693 14.3141L2.70093 16.3628L0.985467 14.3593L1.63133 13.8916L0.579067 12.9324L1.37267 12.3189L0.2988 11.5094L1.11013 10.906L0 5.57531L1.75813 0.300781Z" fill="#763E1A"/>
<path d="M24.0521 13.8645L31.5072 16.035L33.9292 23.4998H27.5393L23.1366 23.5553L26.3385 17.3142L24.0521 13.8645ZM10.0809 13.8645L7.79409 17.3142L10.9964 23.5553L6.59569 23.4998H0.217285L2.62569 16.0351L10.0809 13.8645ZM21.7844 4.41406L19.6992 10.0459L19.2566 17.6539L19.0873 20.0386L19.0738 26.1303H15.059L15.046 20.0501L14.8761 17.6519L14.4334 10.0459L12.3485 4.41406H21.7844Z" fill="#F5841F"/>
</g>
<defs>
<clipPath id="clip0_3890_22064">
<rect width="34.1333" height="32" fill="white"/>
</clipPath>
</defs>
</svg>
